<svg aria-hidden="true" style="position: absolute; width: 0; height: 0; overflow: hidden;" version="1.1" xmlns="http://www.w3.org/2000/svg" xmlns:xlink="http://www.w3.org/1999/xlink">
<defs>

<symbol id="attention_to_details" viewBox="0 0 32 32">
<path d="M30.773 22.098l-8.443-8.505 0.937-4.615c0.242 0.094 0.499 0.144 0.758 0.146h0.006c1.192 0.014 2.17-0.941 2.184-2.133s-0.941-2.17-2.133-2.184c-1.192-0.014-2.17 0.941-2.184 2.133-0.003 0.255 0.039 0.509 0.125 0.749l-4.96 0.605-8.091-8.133c-0.099-0.101-0.235-0.159-0.377-0.16-0.14 0.001-0.274 0.056-0.373 0.155l-1.513 1.504c-0.208 0.208-0.208 0.546 0 0.754l0.814 0.826c-3.153 5.798-2.129 12.978 2.519 17.663 0.043 0.041 0.092 0.074 0.146 0.098-0.034 0.18-0.051 0.364-0.052 0.547v6.187h-6.4c-1.472 0.002-2.665 1.195-2.667 2.667v1.067c0 0.295 0.239 0.533 0.533 0.533h24.533c0.295 0 0.533-0.239 0.533-0.533v-1.067c-0.002-1.472-1.195-2.665-2.667-2.667h-6.4v-2.742c1.003 0.21 2.024 0.317 3.049 0.32 2.458-0.003 4.877-0.615 7.040-1.783l0.818 0.823c0.099 0.101 0.235 0.159 0.377 0.16 0.14-0.001 0.274-0.056 0.373-0.155l1.513-1.504c0.208-0.208 0.208-0.546 0-0.754zM23.28 6.233c0.418-0.415 1.093-0.414 1.508 0.004s0.414 1.093-0.004 1.508c-0.2 0.199-0.47 0.31-0.752 0.31h-0.003c-0.589-0.003-1.064-0.483-1.061-1.072 0.002-0.282 0.115-0.552 0.314-0.751h-0.002zM22.024 9.738l-0.598 2.946-1.175-1.182 1.774-1.763zM21.419 8.836l-1.92 1.909-1.485-1.493 3.405-0.415zM24.004 28.8c0.884 0 1.6 0.716 1.6 1.6v0.533h-23.467v-0.533c0-0.884 0.716-1.6 1.6-1.6h20.267zM16.537 26.667v1.067h-5.333v-1.067h5.333zM11.204 25.6v-4.053c0-1.294 1.196-2.347 2.667-2.347s2.667 1.053 2.667 2.347v4.053h-5.333zM17.604 23.904v-2.357c0-1.882-1.675-3.413-3.733-3.413-1.331-0.020-2.576 0.657-3.281 1.786-4.058-4.274-4.971-10.645-2.279-15.887l18.602 18.708c-2.872 1.461-6.165 1.873-9.309 1.163zM28.893 23.22l-21.057-21.181 0.755-0.752 7.935 7.98c0.004 0 0.006 0.007 0.010 0.010l13.115 13.191-0.757 0.752z"></path>
<path d="M13.876 20.267h-0.005c-0.884-0.001-1.601 0.714-1.602 1.598s0.714 1.601 1.598 1.602h0.005c0.884 0.001 1.601-0.714 1.602-1.598s-0.714-1.601-1.598-1.602zM14.249 22.245c-0.1 0.1-0.236 0.156-0.378 0.155-0.295-0.002-0.532-0.242-0.531-0.536 0.001-0.141 0.057-0.276 0.157-0.375s0.233-0.154 0.373-0.155c0.295 0.002 0.532 0.241 0.53 0.536-0.001 0.141-0.057 0.276-0.157 0.375h0.005z"></path>
</symbol>

<svg id="client-company-tagline-here" viewBox="0 0 40 52">
<path fill-rule="evenodd" clip-rule="evenodd" d="M17.1136 2.93452H16.977C16.7671 2.92181 16.5571 2.91672 16.3471 2.91163H16.3471H16.3269H15.8918C15.4946 2.91163 15.0898 2.92181 14.6876 2.94215C14.6573 2.93994 14.6269 2.93994 14.5966 2.94215C10.9522 3.14863 7.38171 4.05951 4.08049 5.62492L3.6479 5.83344V27.9746L4.65979 27.6313C5.54773 27.3261 6.49384 27.0515 7.47285 26.7972C10.1193 26.1178 12.8367 25.7567 15.568 25.7216V28.6306C15.2062 28.6332 14.8546 28.6434 14.503 28.6612H14.4195C12.3175 28.7765 10.2317 29.0967 8.19129 29.6173C5.60716 30.2643 3.11433 31.2357 0.771606 32.5086V4.11189C3.20469 2.69275 5.82533 1.62687 8.55557 0.945963C10.9527 0.327052 13.4169 0.00930695 15.8918 0H16.3193C16.8303 0.0127146 17.3287 0.0356008 17.7967 0.0712015C19.0297 0.157776 20.2528 0.352628 21.4521 0.653528V3.51685C20.2874 3.24551 19.1032 3.06695 17.9105 2.98284C17.8863 2.98079 17.8621 2.97872 17.8379 2.97666C17.5911 2.95561 17.344 2.93452 17.1136 2.93452ZM22.1528 5.86138C22.7877 5.9097 23.4455 5.93259 24.1108 5.93259C26.7125 5.92307 29.3031 5.59083 31.8239 4.94339C34.4068 4.29396 36.8986 3.32178 39.2411 2.04956V29.9402C36.8067 31.3585 34.1853 32.4243 31.4546 33.1061C29.0571 33.7227 26.5931 34.0395 24.1184 34.0496C22.2433 34.0647 20.3737 33.8443 18.553 33.3935V5.32229C18.983 5.42146 19.4257 5.51301 19.876 5.58929C20.6147 5.7139 21.3939 5.80544 22.1528 5.86138ZM36.3471 6.07753L35.3352 6.41828C34.4042 6.73106 33.4657 7.01078 32.5221 7.25998C29.7749 7.96596 26.9514 8.3281 24.1158 8.33818C23.4556 8.33818 22.8485 8.32038 22.2616 8.28224L21.4546 8.22883V28.3178V31.0057L22.1477 31.0667C22.7903 31.1227 23.4531 31.1506 24.1209 31.1506C26.3544 31.1412 28.5781 30.8533 30.7412 30.2937C32.5223 29.8469 34.2552 29.2243 35.9145 28.4348L36.3471 28.2263V6.07753Z"/>
<path d="M2.73713 42.2124C2.59166 42.0615 2.41629 41.943 2.22236 41.8646C2.02844 41.7862 1.82029 41.7496 1.61141 41.7572C1.38879 41.7542 1.16781 41.7957 0.961267 41.8793C0.771901 41.9547 0.599767 42.068 0.455322 42.2124C0.312451 42.3572 0.201292 42.5304 0.128988 42.721C0.0496792 42.9207 0.0101425 43.1341 0.0126205 43.3491V47.1431C0.00357283 47.4104 0.0545882 47.6764 0.161874 47.9212C0.251433 48.1156 0.380725 48.2889 0.541333 48.4298C0.692953 48.5575 0.870978 48.6495 1.06246 48.6994C1.24694 48.7512 1.43755 48.7777 1.62911 48.7782C1.84041 48.7803 2.04953 48.7351 2.24131 48.646C2.43095 48.563 2.60277 48.4438 2.74725 48.295C2.88814 48.1476 3.00052 47.9752 3.07865 47.7864C3.15973 47.5951 3.20105 47.3892 3.20007 47.1812V46.7566H2.20842V47.0948C2.21137 47.2103 2.1916 47.3252 2.15024 47.433C2.11794 47.5137 2.06877 47.5866 2.00604 47.6466C1.94461 47.6962 1.87416 47.7334 1.79861 47.7559C1.73164 47.7782 1.6617 47.7902 1.59117 47.7915C1.50263 47.8018 1.41296 47.7885 1.33122 47.7527C1.24948 47.717 1.17858 47.6602 1.1257 47.5881C1.03222 47.4356 0.986395 47.2585 0.994154 47.0795V43.5423C0.988002 43.3462 1.02969 43.1515 1.11558 42.9753C1.16706 42.8952 1.2399 42.8313 1.32578 42.7908C1.41166 42.7503 1.50713 42.7349 1.60129 42.7464C1.68676 42.7434 1.7717 42.7612 1.84881 42.7984C1.92591 42.8356 1.99289 42.8911 2.04399 42.96C2.15496 43.1057 2.21298 43.2852 2.20842 43.4686V43.7966H3.18995V43.4101C3.19195 43.1831 3.15073 42.9578 3.06853 42.7464C2.99527 42.5476 2.88251 42.3659 2.73713 42.2124V42.2124Z"/>
<path d="M8.62892 42.1691C8.31271 41.9021 7.91362 41.7546 7.50066 41.7521C7.29868 41.7529 7.09838 41.7891 6.9087 41.8589C6.71613 41.9279 6.53841 42.0332 6.38505 42.1691C6.22076 42.3168 6.08968 42.498 6.00053 42.7006C5.90063 42.9323 5.85146 43.183 5.85634 43.4355V47.0744C5.8495 47.3304 5.89873 47.5847 6.00053 47.8195C6.09028 48.0151 6.22152 48.1887 6.38505 48.328C6.53665 48.4688 6.71468 48.5777 6.9087 48.6485C7.09838 48.7183 7.29868 48.7544 7.50066 48.7553C7.70269 48.7549 7.90307 48.7187 8.09262 48.6485C8.28995 48.5767 8.47195 48.468 8.62892 48.328C8.7871 48.1861 8.91454 48.013 9.00332 47.8195C9.10512 47.5847 9.15435 47.3304 9.14751 47.0744V43.4355C9.15239 43.183 9.10322 42.9323 9.00332 42.7006C8.91505 42.5001 8.78775 42.3194 8.62892 42.1691V42.1691ZM8.16598 47.0744C8.17434 47.1714 8.16095 47.269 8.1268 47.3601C8.09265 47.4512 8.03861 47.5334 7.96866 47.6008C7.83768 47.7106 7.67251 47.7708 7.50193 47.7708C7.33135 47.7708 7.16617 47.7106 7.03519 47.6008C6.96524 47.5334 6.9112 47.4512 6.87705 47.3601C6.8429 47.269 6.82952 47.1714 6.83787 47.0744V43.4355C6.82952 43.3385 6.8429 43.2409 6.87705 43.1498C6.9112 43.0587 6.96524 42.9764 7.03519 42.9091C7.16617 42.7993 7.33135 42.7391 7.50193 42.7391C7.67251 42.7391 7.83768 42.7993 7.96866 42.9091C8.03861 42.9764 8.09265 43.0587 8.1268 43.1498C8.16095 43.2409 8.17434 43.3385 8.16598 43.4355V47.0744Z"/>
<path d="M16.3673 48.6994V41.8107H15.4136L14.1614 45.4572H14.1437L12.8813 41.8107H11.9377V48.6994H12.9218V44.5087H12.9395L13.9033 47.4712H14.3941L15.3655 44.5087H15.3832V48.6994H16.3673Z"/>
<path d="M21.9581 42.2937C21.8065 42.1237 21.6153 41.9943 21.4015 41.9173C21.1712 41.8424 20.9302 41.8063 20.6881 41.8105H19.226V48.6993H20.2075V46.0089H20.7134C21.0197 46.0228 21.3244 45.958 21.5988 45.8207C21.822 45.6968 22.0081 45.515 22.1377 45.2943C22.2512 45.1111 22.3277 44.9071 22.3628 44.6942C22.4014 44.435 22.4192 44.173 22.4159 43.911C22.4255 43.5802 22.3932 43.2495 22.3198 42.9269C22.2543 42.6885 22.1299 42.4706 21.9581 42.2937V42.2937ZM21.4521 44.3941C21.4479 44.5188 21.4168 44.6412 21.361 44.7527C21.3049 44.8586 21.2162 44.9434 21.1081 44.9942C20.9627 45.0593 20.8041 45.0889 20.6451 45.0807H20.1974V42.7387H20.7033C20.8557 42.7312 21.0075 42.7609 21.146 42.8251C21.2475 42.8834 21.3281 42.9724 21.3762 43.0794C21.4299 43.2004 21.4591 43.331 21.4622 43.4634C21.4622 43.6084 21.4622 43.7609 21.4622 43.9211C21.4622 44.0813 21.4723 44.2466 21.4622 44.3941H21.4521Z"/>
<path d="M26.6077 41.8107H25.8032L24.2854 48.6994H25.2669L25.5553 47.2194H26.8935L27.1819 48.6994H28.1635L26.6077 41.8107ZM25.702 46.2811L26.1852 43.784H26.2029L26.6836 46.2811H25.702Z"/>
<path d="M32.9497 45.9607H32.932L31.4496 41.8107H30.506V48.6994H31.4875V44.557H31.5078L33.0079 48.6994H33.9312V41.8107H32.9497V45.9607Z"/>
<path d="M38.9476 41.8107L38.1583 44.5494H38.1381L37.3488 41.8107H36.3091L37.6574 45.7878V48.6994H38.639V45.7878L39.9873 41.8107H38.9476Z"/>
<path d="M0 50.6445H0.473058V51.9719H0.794333V50.6445H1.26486V50.3724H0V50.6445Z"/>
<path d="M3.97672 50.3724L3.35693 51.9719H3.69845L3.82999 51.6083H4.46748L4.60409 51.9719H4.95319L4.31823 50.3724H3.97672ZM3.92612 51.3387L4.14368 50.7462L4.36123 51.3387H3.92612Z"/>
<path d="M7.90793 51.3821H8.27727V51.5881C8.16941 51.6746 8.03576 51.722 7.89781 51.7229C7.8333 51.7265 7.76886 51.7145 7.70988 51.688C7.65091 51.6614 7.59911 51.6211 7.55883 51.5703C7.47402 51.4485 7.43217 51.3017 7.43993 51.1533C7.43993 50.7973 7.59424 50.6193 7.90034 50.6193C7.98091 50.6112 8.06168 50.6325 8.12804 50.6791C8.19439 50.7257 8.24194 50.7947 8.26209 50.8735L8.57831 50.8125C8.51001 50.4997 8.28486 50.3421 7.90034 50.3421C7.69468 50.3366 7.4947 50.4103 7.34127 50.5481C7.26069 50.6276 7.19834 50.7239 7.15858 50.8302C7.11882 50.9365 7.10261 51.0502 7.11107 51.1634C7.10175 51.3823 7.17493 51.5966 7.31598 51.7636C7.39434 51.8444 7.4892 51.9071 7.59401 51.9475C7.69883 51.9879 7.8111 52.0049 7.92311 51.9975C8.17338 52.0045 8.41652 51.9133 8.60108 51.7432V51.1126H7.90793V51.3821Z"/>
<path d="M11.9226 50.3724H11.5988V51.9719H12.7194V51.6998H11.9226V50.3724Z"/>
<path d="M15.3175 50.3724H14.9937V51.9719H15.3175V50.3724Z"/>
<path d="M18.6365 51.4405L17.9813 50.3724H17.6676V51.9719H17.9686V50.9268L18.6112 51.9719H18.9325V50.3724H18.6365V51.4405Z"/>
<path d="M21.6368 51.2675H22.4337V50.9954H21.6368V50.6445H22.4944V50.3724H21.313V51.9719H22.5273V51.6998H21.6368V51.2675Z"/>
<path d="M28.9122 51.0031H28.2823V50.3724H27.9611V51.9719H28.2823V51.2726H28.9122V51.9719H29.2335V50.3724H28.9122V51.0031Z"/>
<path d="M31.9302 51.2675H32.7296V50.9954H31.9302V50.6445H32.7903V50.3724H31.6089V51.9719H32.8206V51.6998H31.9302V51.2675Z"/>
<path d="M36.0233 51.2676C36.3015 51.2244 36.4432 51.0769 36.4432 50.8226C36.4513 50.7546 36.441 50.6856 36.4134 50.623C36.3858 50.5603 36.3419 50.5063 36.2863 50.4666C36.1415 50.3938 35.9799 50.3614 35.8183 50.3725H35.1404V51.972H35.4617V51.3032H35.5249C35.5934 51.299 35.6619 51.3112 35.7247 51.3388C35.7717 51.3678 35.8108 51.4079 35.8386 51.4558L36.1877 51.9644H36.5722L36.3774 51.6516C36.2913 51.4972 36.1699 51.3656 36.0233 51.2676V51.2676ZM35.6994 51.0464H35.4617V50.6446H35.7146C35.8248 50.6357 35.9357 50.6486 36.041 50.6827C36.0644 50.7034 36.0828 50.7291 36.095 50.7579C36.1072 50.7867 36.1127 50.8179 36.1113 50.8492C36.1098 50.8804 36.1014 50.911 36.0866 50.9385C36.0718 50.966 36.051 50.9899 36.0258 51.0082C35.9202 51.0406 35.8096 51.0535 35.6994 51.0464V51.0464Z"/>
<path d="M39.1096 51.2675H39.9064V50.9954H39.1096V50.6445H39.9697V50.3724H38.7858V51.9719H40V51.6998H39.1096V51.2675Z"/>
</svg>

<symbol id="client-ya-and-co" viewBox="0 0 41 47">
<path fill-rule="evenodd" clip-rule="evenodd" d="M6 0L13.0078 6.63413L0 6.62646V38.8137H34V26.507L41 33.1338V0H6ZM33.6924 25.7283L13.8226 6.91796H33.6924V25.7283ZM27.5231 34.1055H5.38008V12.4579H6.9453V32.6397H27.5231V34.1055ZM10.6089 43.0991L9.79102 44.7837L8.97314 43.0991H8.28711L9.48096 45.3452V46.6538H10.1011V45.3452L11.2925 43.0991H10.6089ZM11.6367 46.6538L11.9248 45.8262H13.3018L13.5923 46.6538H14.2368L12.8916 43.0991H12.3374L10.9946 46.6538H11.6367ZM12.6133 43.8535L13.1284 45.3281H12.0981L12.6133 43.8535ZM15.8701 45.2427C15.7806 45.3794 15.7358 45.5299 15.7358 45.6943C15.7358 45.9938 15.8408 46.2371 16.0508 46.4243C16.2624 46.6099 16.5439 46.7026 16.8955 46.7026C17.2471 46.7026 17.5498 46.6074 17.8037 46.417L18.0039 46.6538H18.6924L18.1699 46.0361C18.375 45.7562 18.4775 45.3973 18.4775 44.9595H17.9624C17.9624 45.1987 17.9128 45.416 17.8135 45.6113L17.1274 44.8008L17.3691 44.625C17.54 44.5013 17.6629 44.3776 17.7378 44.2539C17.8127 44.1286 17.8501 43.9919 17.8501 43.8438C17.8501 43.6191 17.7671 43.4312 17.6011 43.2798C17.4367 43.1268 17.2251 43.0503 16.9663 43.0503C16.6798 43.0503 16.452 43.1317 16.2827 43.2944C16.1134 43.4556 16.0288 43.6753 16.0288 43.9536C16.0288 44.0675 16.0557 44.1855 16.1094 44.3076C16.1647 44.4297 16.2616 44.5778 16.3999 44.752C16.1362 44.9408 15.9596 45.1043 15.8701 45.2427ZM17.4741 46.0288C17.3 46.1623 17.1128 46.229 16.9126 46.229C16.7352 46.229 16.5936 46.1777 16.4878 46.0752C16.382 45.9727 16.3291 45.8392 16.3291 45.6748C16.3291 45.4844 16.4268 45.3151 16.6221 45.167L16.6978 45.1133L17.4741 46.0288ZM16.8369 44.4541C16.6693 44.2474 16.5854 44.0757 16.5854 43.939C16.5854 43.8201 16.6196 43.7217 16.688 43.6436C16.7563 43.5654 16.8483 43.5264 16.9639 43.5264C17.0713 43.5264 17.16 43.5597 17.23 43.6265C17.3 43.6916 17.335 43.7705 17.335 43.8633C17.335 44.0033 17.2845 44.118 17.1836 44.2075L17.1079 44.2686L16.8369 44.4541ZM22.623 46.3853C22.8672 46.172 23.0072 45.8758 23.043 45.4966H22.4277C22.3952 45.7505 22.3179 45.932 22.1958 46.041C22.0737 46.1501 21.8914 46.2046 21.6489 46.2046C21.3836 46.2046 21.1818 46.1037 21.0435 45.9019C20.9067 45.7 20.8384 45.4071 20.8384 45.0229V44.708C20.8416 44.3288 20.9149 44.0415 21.0581 43.8462C21.203 43.6493 21.4097 43.5508 21.6782 43.5508C21.9093 43.5508 22.0843 43.6077 22.2031 43.7217C22.3236 43.834 22.3984 44.0179 22.4277 44.2734H23.043C23.0039 43.8844 22.8647 43.5833 22.6255 43.3701C22.3862 43.1569 22.0705 43.0503 21.6782 43.0503C21.3869 43.0503 21.1297 43.1195 20.9067 43.2578C20.6854 43.3962 20.5153 43.5931 20.3965 43.8486C20.2777 44.1042 20.2183 44.3996 20.2183 44.7349V45.0669C20.2231 45.394 20.2842 45.6813 20.4014 45.9287C20.5186 46.1761 20.6846 46.3674 20.8994 46.5024C21.1159 46.6359 21.3657 46.7026 21.6489 46.7026C22.0542 46.7026 22.3789 46.5968 22.623 46.3853ZM26.2534 45.8872C26.3739 45.6235 26.4341 45.3175 26.4341 44.9692V44.7715C26.4325 44.4248 26.3706 44.1213 26.2485 43.8608C26.1265 43.5988 25.9531 43.3986 25.7285 43.2603C25.5055 43.1203 25.2492 43.0503 24.9595 43.0503C24.6698 43.0503 24.4126 43.1211 24.188 43.2627C23.965 43.4027 23.7917 43.6053 23.668 43.8706C23.5459 44.1359 23.4849 44.4419 23.4849 44.7886V44.9888C23.4865 45.3289 23.5483 45.6292 23.6704 45.8896C23.7941 46.1501 23.9683 46.3511 24.1929 46.4927C24.4191 46.6326 24.6763 46.7026 24.9644 46.7026C25.2557 46.7026 25.5129 46.6326 25.7358 46.4927C25.9604 46.3511 26.133 46.1493 26.2534 45.8872ZM25.5918 43.8779C25.7415 44.0879 25.8164 44.3898 25.8164 44.7837V44.9692C25.8164 45.3696 25.7423 45.674 25.5942 45.8823C25.4478 46.0907 25.2378 46.1948 24.9644 46.1948C24.6942 46.1948 24.4826 46.0882 24.3296 45.875C24.1782 45.6618 24.1025 45.3599 24.1025 44.9692V44.7642C24.1058 44.3817 24.1823 44.0863 24.332 43.8779C24.4834 43.668 24.6925 43.563 24.9595 43.563C25.2329 43.563 25.4437 43.668 25.5918 43.8779Z"/>
</symbol>

<symbol id="envelope" viewBox="0 0 43 32">
<path d="M38.667 0h-34.667c-2.206 0-4 1.794-4 4v24c0 2.206 1.794 4 4 4h34.667c2.206 0 4-1.794 4-4v-24c0-2.206-1.794-4-4-4zM38.667 2.667c0.181 0 0.353 0.038 0.511 0.103l-17.844 15.466-17.844-15.466c0.158-0.066 0.33-0.103 0.511-0.103h34.667zM38.667 29.333h-34.667c-0.736 0-1.333-0.598-1.333-1.333v-22.413l17.793 15.421c0.251 0.217 0.563 0.326 0.874 0.326s0.622-0.108 0.874-0.326l17.793-15.421v22.413c0 0.736-0.598 1.333-1.333 1.333z"></path>
</symbol>
<symbol id="facebook" viewBox="0 0 18 32">
<path d="M13.329 5.313h2.921v-5.088c-0.504-0.069-2.237-0.225-4.256-0.225-4.212 0-7.097 2.649-7.097 7.519v4.481h-4.648v5.688h4.648v14.312h5.699v-14.311h4.46l0.708-5.688h-5.169v-3.919c0.001-1.644 0.444-2.769 2.735-2.769z"></path>
</symbol>

<symbol id="instagram" viewBox="0 0 32 32">
<path d="M31.969 9.408c-0.075-1.7-0.35-2.869-0.744-3.882-0.406-1.075-1.032-2.038-1.851-2.838-0.8-0.813-1.769-1.444-2.832-1.844-1.019-0.394-2.182-0.669-3.882-0.744-1.713-0.081-2.257-0.1-6.601-0.1s-4.888 0.019-6.595 0.094c-1.7 0.075-2.869 0.35-3.882 0.744-1.075 0.406-2.038 1.031-2.838 1.85-0.813 0.8-1.444 1.769-1.844 2.832-0.394 1.019-0.669 2.182-0.744 3.882-0.081 1.713-0.1 2.257-0.1 6.601s0.019 4.888 0.094 6.595c0.075 1.7 0.35 2.869 0.744 3.882 0.406 1.075 1.038 2.038 1.85 2.838 0.8 0.813 1.769 1.444 2.832 1.844 1.019 0.394 2.182 0.669 3.882 0.744 1.706 0.075 2.25 0.094 6.595 0.094s4.888-0.019 6.595-0.094c1.7-0.075 2.869-0.35 3.882-0.744 2.151-0.832 3.851-2.532 4.682-4.682 0.394-1.019 0.669-2.182 0.744-3.882 0.075-1.707 0.094-2.251 0.094-6.595s-0.006-4.888-0.081-6.595zM29.087 22.473c-0.069 1.563-0.331 2.407-0.55 2.969-0.538 1.394-1.644 2.5-3.038 3.038-0.563 0.219-1.413 0.481-2.969 0.55-1.688 0.075-2.194 0.094-6.464 0.094s-4.782-0.019-6.464-0.094c-1.563-0.069-2.407-0.331-2.969-0.55-0.694-0.256-1.325-0.663-1.838-1.194-0.531-0.519-0.938-1.144-1.194-1.838-0.219-0.563-0.481-1.413-0.55-2.969-0.075-1.688-0.094-2.194-0.094-6.464s0.019-4.782 0.094-6.464c0.069-1.563 0.331-2.407 0.55-2.969 0.256-0.694 0.663-1.325 1.2-1.838 0.519-0.531 1.144-0.938 1.838-1.194 0.563-0.219 1.413-0.481 2.969-0.55 1.688-0.075 2.194-0.094 6.464-0.094 4.276 0 4.782 0.019 6.464 0.094 1.563 0.069 2.407 0.331 2.969 0.55 0.694 0.256 1.325 0.662 1.838 1.194 0.531 0.519 0.938 1.144 1.194 1.838 0.219 0.563 0.481 1.413 0.55 2.969 0.075 1.688 0.094 2.194 0.094 6.464s-0.019 4.77-0.094 6.458z"></path>
<path d="M16.059 7.783c-4.538 0-8.22 3.682-8.22 8.22s3.682 8.22 8.22 8.22c4.539 0 8.22-3.682 8.22-8.22s-3.682-8.22-8.22-8.22zM16.059 21.335c-2.944 0-5.332-2.388-5.332-5.332s2.388-5.332 5.332-5.332c2.944 0 5.332 2.388 5.332 5.332s-2.388 5.332-5.332 5.332z"></path>
<path d="M26.524 7.458c0 1.060-0.859 1.919-1.919 1.919s-1.919-0.859-1.919-1.919c0-1.060 0.859-1.919 1.919-1.919s1.919 0.859 1.919 1.919z"></path>
</symbol>

<symbol id="linkedin" viewBox="0 0 32 32">
<path d="M31.992 32v-0.001h0.008v-11.736c0-5.741-1.236-10.164-7.948-10.164-3.227 0-5.392 1.771-6.276 3.449h-0.093v-2.913h-6.364v21.364h6.627v-10.579c0-2.785 0.528-5.479 3.977-5.479 3.399 0 3.449 3.179 3.449 5.657v10.401h6.62z"></path>
<path d="M0.528 10.636h6.635v21.364h-6.635v-21.364z"></path>
<path d="M3.843 0c-2.121 0-3.843 1.721-3.843 3.843s1.721 3.879 3.843 3.879c2.121 0 3.843-1.757 3.843-3.879-0.001-2.121-1.723-3.843-3.843-3.843v0z"></path>
</symbol>

<symbol id="modern-technologies" viewBox="0 0 32 32">
<path d="M31.974 4.524c-0.063-0.193-0.229-0.333-0.43-0.363l-1.91-0.278-0.855-1.731c-0.179-0.365-0.777-0.365-0.956 0l-0.855 1.731-1.91 0.278c-0.201 0.029-0.367 0.17-0.431 0.363-0.062 0.193-0.011 0.405 0.135 0.547l1.383 1.348-0.326 1.903c-0.034 0.2 0.048 0.402 0.212 0.522 0.166 0.121 0.382 0.135 0.562 0.040l1.709-0.899 1.709 0.899c0.078 0.041 0.164 0.061 0.249 0.061 0.11 0 0.221-0.034 0.314-0.102 0.164-0.119 0.246-0.322 0.212-0.522l-0.326-1.903 1.383-1.348c0.145-0.142 0.197-0.354 0.135-0.547zM29.511 5.851c-0.125 0.122-0.183 0.299-0.153 0.472l0.191 1.114-1-0.526c-0.078-0.041-0.163-0.061-0.249-0.061s-0.17 0.020-0.249 0.061l-1.001 0.526 0.191-1.114c0.030-0.173-0.028-0.349-0.153-0.472l-0.81-0.789 1.119-0.163c0.174-0.025 0.324-0.134 0.402-0.292l0.5-1.013 0.5 1.013c0.078 0.157 0.228 0.267 0.402 0.292l1.119 0.163-0.809 0.789z"></path>
<path d="M26.134 20.522h-1.067v1.067h1.067v-1.067z"></path>
<path d="M26.134 22.656h-1.067v1.067h1.067v-1.067z"></path>
<path d="M27.2 21.589h-1.067v1.067h1.067v-1.067z"></path>
<path d="M25.067 21.589h-1.067v1.067h1.067v-1.067z"></path>
<path d="M22.4 26.389h-1.067v1.067h1.067v-1.067z"></path>
<path d="M22.4 28.522h-1.067v1.067h1.067v-1.067z"></path>
<path d="M23.467 27.456h-1.067v1.067h1.067v-1.067z"></path>
<path d="M21.333 27.456h-1.067v1.067h1.067v-1.067z"></path>
<path d="M16 24.256h-1.067v1.067h1.067v-1.067z"></path>
<path d="M16 26.389h-1.067v1.067h1.067v-1.067z"></path>
<path d="M17.067 25.322h-1.067v1.067h1.067v-1.067z"></path>
<path d="M14.933 25.322h-1.067v1.067h1.067v-1.067z"></path>
<path d="M5.867 6.122h-1.067v1.067h1.067v-1.067z"></path>
<path d="M5.867 8.255h-1.067v1.067h1.067v-1.067z"></path>
<path d="M6.933 7.189h-1.067v1.067h1.067v-1.067z"></path>
<path d="M4.8 7.189h-1.067v1.067h1.067v-1.067z"></path>
<path d="M24.715 14.159c-0.287-0.388-0.709-0.637-1.188-0.705-0.481-0.068-0.956 0.058-1.34 0.352l-1.252 0.96-1.898 1.417-1.358-0.541c2.421-1.086 4.114-3.508 4.114-6.32 0-3.823-3.123-6.933-6.961-6.933s-6.961 3.11-6.961 6.933c0 1.386 0.414 2.674 1.12 3.758l-2.764-0.024c-0.002 0-0.003 0-0.005 0-0.009 0-0.015 0.004-0.023 0.005-0.053 0.002-0.105 0.013-0.155 0.031-0.013 0.005-0.026 0.008-0.038 0.013-0.006 0.003-0.013 0.003-0.019 0.006l-3.233 1.596c-0.001 0-0.001 0-0.001 0.001l-1.893 0.911c-0.021 0.009-0.042 0.021-0.063 0.035-0.755 0.502-1.012 1.489-0.598 2.295 0.22 0.429 0.595 0.745 1.056 0.889 0.178 0.055 0.359 0.083 0.539 0.083 0.29 0 0.577-0.071 0.839-0.211l1.388-0.738 2.264-1.169 1.357-0.008-5.442 5.416c-0.001 0.001-0.001 0.001-0.002 0.001l-1.339 1.333c-0.316 0.315-0.49 0.732-0.49 1.178s0.174 0.863 0.49 1.179c0.325 0.323 0.752 0.485 1.179 0.485s0.854-0.162 1.18-0.485l1.314-1.309 1.741-1.3 0.901 0.897-1.762 1.754c-0 0.001-0.001 0.001-0.002 0.001l-1.339 1.333c-0.316 0.315-0.49 0.732-0.49 1.178s0.174 0.863 0.49 1.179c0.325 0.323 0.753 0.485 1.18 0.485s0.855-0.162 1.18-0.485l3.482-3.467c0.001-0.001 0.001-0.001 0.001-0.002l1.010-1-0.004-0.004c0.006-0.006 0.015-0.009 0.022-0.015l5.166-5.658 3.471 0.494c0.025 0.004 0.050 0.005 0.075 0.005 0.065 0 0.127-0.015 0.187-0.038 0.018-0.006 0.033-0.015 0.050-0.023 0.019-0.010 0.039-0.015 0.058-0.027l3.213-2.133c0.012-0.008 0.018-0.021 0.029-0.029 0.013-0.010 0.029-0.014 0.041-0.026l1.271-1.191c0.662-0.62 0.753-1.635 0.212-2.362zM2.13 17.77c-0.173 0.093-0.37 0.111-0.558 0.052-0.187-0.058-0.338-0.186-0.427-0.358-0.161-0.314-0.068-0.695 0.214-0.902l1.314-0.632 0.449 1.312-0.992 0.528zM5.628 15.942l-1.548 0.8-0.439-1.283 2.027-1.001-0.040 1.484zM20.727 9.322c0 0.918-0.219 1.785-0.599 2.559l-4.181-1.899c-0.044-0.573-0.341-1.075-0.788-1.388l1.464-4.86c2.378 0.756 4.105 2.974 4.105 5.588zM8.938 9.322c0-3.235 2.644-5.867 5.894-5.867 0.253 0 0.5 0.021 0.745 0.052l-1.432 4.754c-0.019-0.001-0.037-0.006-0.057-0.006-1.033 0-1.873 0.837-1.873 1.867s0.84 1.867 1.873 1.867c0.694 0 1.294-0.383 1.618-0.945l3.862 1.755c-1.075 1.446-2.795 2.39-4.737 2.39-3.25 0-5.894-2.632-5.894-5.867zM14.894 10.122c0 0.441-0.362 0.8-0.806 0.8s-0.806-0.359-0.806-0.8c0-0.441 0.362-0.8 0.806-0.8s0.806 0.359 0.806 0.8zM2.465 25.146c-0.236 0.234-0.619 0.234-0.854 0.001-0.114-0.114-0.176-0.263-0.176-0.423s0.062-0.309 0.176-0.421l0.962-0.958 0.851 0.848-0.959 0.955zM5.679 28.88c-0.236 0.234-0.619 0.235-0.855 0.001-0.114-0.114-0.176-0.263-0.176-0.423s0.062-0.309 0.176-0.421l0.963-0.959 0.852 0.848-0.96 0.955zM9.16 25.411c-0.001 0-0.001 0-0.002 0.001l-1.765 1.76-0.852-0.848 1.763-1.755c0 0 0 0 0-0s0.001-0.001 0.002-0.001c0.040-0.040 0.065-0.088 0.090-0.135 0.007-0.014 0.020-0.026 0.026-0.040 0.017-0.041 0.019-0.085 0.026-0.129 0.003-0.025 0.014-0.047 0.014-0.073 0-0.036-0.013-0.070-0.020-0.106-0.006-0.032-0.006-0.065-0.019-0.095-0.020-0.050-0.055-0.094-0.091-0.138-0.010-0.012-0.014-0.027-0.025-0.038 0 0 0 0-0.001 0s-0.001-0.002-0.001-0.002l-1.607-1.6c-0.017-0.017-0.039-0.024-0.058-0.038-0.028-0.022-0.055-0.042-0.087-0.058-0.030-0.015-0.061-0.024-0.093-0.033-0.034-0.010-0.067-0.017-0.103-0.020-0.033-0.002-0.063 0.001-0.095 0.005-0.036 0.004-0.069 0.009-0.104 0.020-0.034 0.011-0.063 0.027-0.094 0.045-0.020 0.011-0.042 0.015-0.061 0.029l-1.773 1.324-0.901-0.897 2.399-2.386 4.361 4.289-0.928 0.919zM15.979 18.394c-0.015-0.002-0.030 0.004-0.045 0.003-0.039-0.002-0.076 0.001-0.115 0.007-0.030 0.005-0.059 0.011-0.088 0.021-0.034 0.012-0.065 0.028-0.097 0.047-0.030 0.018-0.057 0.037-0.083 0.061-0.013 0.011-0.028 0.017-0.040 0.029l-4.698 5.146-4.328-4.257 2.833-2.818c0.209-0.208 0.21-0.546 0.002-0.755-0.105-0.105-0.243-0.157-0.381-0.156v-0.001l-2.219 0.013 0.028-1.607 3.104 0.027c1.265 1.294 3.029 2.101 4.981 2.101 0.437 0 0.864-0.045 1.279-0.123 0.040 0.032 0.079 0.065 0.13 0.085l2.41 0.96 0.331 1.644-3.003-0.427zM20.020 18.572l-0.313-1.558 1.446-1.080 0.947 1.257-2.080 1.381zM23.774 15.741l-0.838 0.785-0.931-1.236 0.831-0.637c0.155-0.119 0.351-0.168 0.543-0.143 0.193 0.027 0.364 0.128 0.48 0.284 0.217 0.292 0.18 0.699-0.085 0.947z"></path>
<path d="M13.602 18.544l-2.143-2.133c-0.207-0.207-0.545-0.207-0.753 0l-2.142 2.133c-0.1 0.101-0.157 0.236-0.157 0.378s0.056 0.278 0.157 0.378l2.142 2.133c0.104 0.103 0.241 0.155 0.377 0.155s0.273-0.052 0.376-0.155l2.143-2.133c0.1-0.1 0.157-0.236 0.157-0.378s-0.057-0.278-0.157-0.378zM11.083 20.303l-1.387-1.381 1.387-1.381 1.387 1.381-1.387 1.381z"></path>
<path d="M17.164 5.071l-0.258 1.036c0.071 0.018 1.738 0.452 1.738 2.149h1.067c-0-2.017-1.666-2.965-2.547-3.185z"></path>
<path d="M19.711 9.322h-1.067v1.067h1.067v-1.067z"></path>
</symbol>

<symbol id="phone" viewBox="0 0 20 32">
<path d="M17 0h-14c-1.654 0-3 1.346-3 3v26c0 1.654 1.346 3 3 3h14c1.654 0 3-1.346 3-3v-26c0-1.654-1.346-3-3-3zM3 2h14c0.552 0 1 0.448 1 1v21h-16v-21c0-0.552 0.448-1 1-1zM17 30h-14c-0.552 0-1-0.448-1-1v-3h16v3c0 0.552-0.448 1-1 1z"></path>
</symbol>

<symbol id="planning" viewBox="0 0 32 32">
<path d="M14.926 14.965h1.066v4.798h-1.066v-4.797z"></path>
<path d="M19.19 17.097h1.066v2.665h-1.066v-2.665z"></path>
<path d="M10.661 18.696h1.066v1.066h-1.066v-1.066z"></path>
<path d="M7.463 18.163h1.066v1.599h-1.066v-1.599z"></path>
<path d="M1.599 28.291h25.587c0.883 0 1.599-0.716 1.599-1.599v-2.132c0-0.883-0.716-1.599-1.599-1.599h-0.533v-13.293l3.028-2.868c0.703 0.346 1.553 0.136 2.013-0.499s0.396-1.508-0.152-2.068-1.42-0.644-2.065-0.198c-0.644 0.446-0.873 1.292-0.542 2.002l-2.281 2.163v-1.23c0-0.883-0.716-1.599-1.599-1.599h-21.322c-0.883 0-1.599 0.716-1.599 1.599v15.992h-0.533c-0.883 0-1.599 0.716-1.599 1.599v2.132c0 0.883 0.716 1.599 1.599 1.599zM30.384 4.837c0.294 0 0.533 0.239 0.533 0.533s-0.239 0.533-0.533 0.533c-0.294 0-0.533-0.239-0.533-0.533s0.239-0.533 0.533-0.533zM3.198 6.969c0-0.294 0.239-0.533 0.533-0.533h21.322c0.294 0 0.533 0.239 0.533 0.533v2.239l-1.066 1.013v-2.186c0-0.294-0.239-0.533-0.533-0.533h-19.19c-0.294 0-0.533 0.239-0.533 0.533v13.326c0 0.294 0.239 0.533 0.533 0.533h19.19c0.294 0 0.533-0.239 0.533-0.533v-9.674l1.066-1.010v12.284h-22.388v-15.992zM7.996 13.899c-0.721-0.002-1.354 0.478-1.546 1.174s0.105 1.433 0.725 1.801c0.62 0.368 1.41 0.276 1.928-0.226l1.853 0.93c0.215 0.108 0.476 0.057 0.636-0.123l3.939-4.431 3.872 2.901c0.208 0.156 0.498 0.139 0.686-0.039l3.365-3.188v8.131h-18.124v-12.26h18.124v2.66l-3.771 3.572-3.904-2.927c-0.222-0.166-0.534-0.135-0.718 0.072l-3.993 4.493-1.493-0.746c0.011-0.064 0.018-0.129 0.020-0.193 0-0.883-0.716-1.599-1.599-1.599zM8.529 15.498c0 0.294-0.239 0.533-0.533 0.533s-0.533-0.239-0.533-0.533c0-0.294 0.239-0.533 0.533-0.533s0.533 0.239 0.533 0.533zM11.727 24.027h5.331v0.533c0 0.294-0.239 0.533-0.533 0.533h-4.264c-0.294 0-0.533-0.239-0.533-0.533v-0.533zM1.066 24.56c0-0.294 0.239-0.533 0.533-0.533h9.062v0.533c0 0.883 0.716 1.599 1.599 1.599h4.264c0.883 0 1.599-0.716 1.599-1.599v-0.533h9.062c0.294 0 0.533 0.239 0.533 0.533v2.132c0 0.294-0.239 0.533-0.533 0.533h-25.587c-0.294 0-0.533-0.239-0.533-0.533v-2.132z"></path>
</symbol>

<symbol id="punctuality" viewBox="0 0 32 32">
<path d="M31.297 15.301c-0.002-8.452-6.855-15.303-15.308-15.301s-15.303 6.855-15.301 15.308c0.001 6.658 4.307 12.551 10.649 14.576 0.061 0.019 0.124 0.029 0.187 0.029 0.121-0 0.239-0.032 0.342-0.094 0.135-0.080 0.236-0.207 0.283-0.356l3.865-12.25c1.057-0.005 1.909-0.866 1.903-1.923s-0.866-1.909-1.923-1.903c-0.284 0.001-0.565 0.067-0.82 0.191l-5.106-5.107c-0.253-0.245-0.657-0.238-0.902 0.016-0.239 0.247-0.239 0.639 0 0.886l5.103 5.109c-0.392 0.799-0.168 1.764 0.536 2.309l-3.683 11.673c-7.278-2.681-11.004-10.754-8.323-18.032s10.754-11.004 18.032-8.323 11.004 10.754 8.323 18.032c-1.31 3.556-4.001 6.431-7.462 7.973l-0.398-1.874c-0.073-0.344-0.411-0.565-0.756-0.492-0.109 0.023-0.209 0.074-0.292 0.148l-3.837 3.426c-0.263 0.234-0.287 0.637-0.052 0.9 0.076 0.085 0.174 0.149 0.283 0.184l4.899 1.563c0.335 0.108 0.694-0.077 0.802-0.412 0.034-0.106 0.040-0.219 0.017-0.328l-0.391-1.839c5.664-2.388 9.342-7.942 9.329-14.089v0zM15.992 14.664c0.352 0 0.638 0.286 0.638 0.638s-0.286 0.638-0.638 0.638c-0.352 0-0.638-0.285-0.638-0.638s0.285-0.638 0.638-0.638zM18.093 29.528l2.184-1.948 0.603 2.84-2.787-0.892z"></path>
<path d="M15.354 3.185v1.275c0 0.352 0.285 0.638 0.638 0.638s0.638-0.285 0.638-0.638v-1.275c0-0.352-0.286-0.638-0.638-0.638s-0.638 0.286-0.638 0.638z"></path>
<path d="M3.876 14.664c-0.352 0-0.638 0.286-0.638 0.638s0.285 0.638 0.638 0.638h1.275c0.352 0 0.638-0.285 0.638-0.638s-0.285-0.638-0.638-0.638h-1.275z"></path>
<path d="M28.108 15.939c0.352 0 0.638-0.285 0.638-0.638s-0.285-0.638-0.638-0.638h-1.275c-0.352 0-0.638 0.286-0.638 0.638s0.286 0.638 0.638 0.638h1.275z"></path>
</symbol>

<symbol id="twitter" viewBox="0 0 36 32">
<path d="M35.556 4.976c-1.322 0.58-2.731 0.964-4.2 1.151 1.511-0.902 2.665-2.32 3.207-4.029-1.409 0.84-2.964 1.433-4.622 1.764-1.338-1.424-3.244-2.307-5.324-2.307-4.035 0-7.284 3.276-7.284 7.291 0 0.578 0.049 1.133 0.169 1.662-6.060-0.296-11.422-3.2-15.024-7.624-0.629 1.091-0.998 2.34-0.998 3.684 0 2.524 1.3 4.762 3.238 6.058-1.171-0.022-2.32-0.362-3.293-0.898 0 0.022 0 0.051 0 0.080 0 3.542 2.527 6.484 5.84 7.162-0.593 0.162-1.24 0.24-1.911 0.24-0.467 0-0.938-0.026-1.38-0.124 0.944 2.887 3.624 5.009 6.811 5.078-2.48 1.94-5.629 3.109-9.038 3.109-0.598 0-1.171-0.026-1.744-0.1 3.229 2.082 7.056 3.271 11.182 3.271 13.413 0 20.747-11.111 20.747-20.742 0-0.322-0.011-0.633-0.027-0.942 1.447-1.027 2.662-2.309 3.653-3.784z"></path>
</symbol>

<symbol id="client-foster-peters" viewBox="0 0 57 32">
<path d="M12.878 11.255h-0.002c-1.279 0-2.316 0.921-2.316 2.058v0.001c0 1.137 1.037 2.058 2.316 2.058h0.002c1.279 0 2.316-0.921 2.316-2.058v-0.001c0-1.137-1.037-2.058-2.316-2.058z"></path>
<path d="M29.971 10.597c-0.004-1.579-0.711-3.092-1.967-4.208s-2.958-1.745-4.735-1.749v0c-1.777 0.003-3.48 0.631-4.737 1.748s-1.964 2.63-1.968 4.209v8.706c0 0 13.405-1.327 13.406-8.704v-0.001z"></path>
<path d="M5.867 22.16c0.003 1.098 0.496 2.151 1.369 2.928s2.058 1.215 3.294 1.218c1.236-0.003 2.42-0.441 3.294-1.218s1.366-1.829 1.37-2.927v-6.057c0 0-9.327 0.924-9.327 6.056zM10.53 23.245c-0.242 0-0.478-0.064-0.678-0.183s-0.357-0.289-0.45-0.487c-0.092-0.198-0.117-0.417-0.069-0.627s0.163-0.404 0.334-0.556c0.171-0.152 0.388-0.255 0.625-0.297s0.482-0.020 0.706 0.062c0.223 0.082 0.414 0.221 0.548 0.4s0.206 0.388 0.206 0.603c0.001 0.143-0.031 0.284-0.092 0.417s-0.151 0.252-0.264 0.353c-0.114 0.101-0.248 0.182-0.397 0.236s-0.308 0.083-0.468 0.083v-0.004z"></path>
<path d="M19.956 22.647h-0.9v0.93h-0.469v-2.275h1.481v0.38h-1.012v0.588h0.9v0.378zM22.209 22.491c0 0.224-0.040 0.42-0.119 0.589s-0.193 0.299-0.341 0.391c-0.147 0.092-0.316 0.137-0.506 0.137-0.189 0-0.357-0.045-0.505-0.136s-0.262-0.22-0.344-0.387c-0.081-0.169-0.122-0.363-0.123-0.581v-0.112c0-0.224 0.040-0.421 0.12-0.591 0.081-0.171 0.195-0.302 0.342-0.392 0.148-0.092 0.317-0.137 0.506-0.137s0.358 0.046 0.505 0.137c0.148 0.091 0.262 0.221 0.342 0.392 0.081 0.17 0.122 0.366 0.122 0.589v0.102zM21.734 22.388c0-0.238-0.043-0.42-0.128-0.544s-0.207-0.186-0.366-0.186c-0.157 0-0.279 0.061-0.364 0.184-0.085 0.122-0.129 0.301-0.13 0.538v0.111c0 0.232 0.043 0.412 0.128 0.541s0.208 0.192 0.369 0.192c0.157 0 0.278-0.061 0.363-0.184 0.084-0.124 0.127-0.304 0.128-0.541v-0.111zM23.73 22.98c0-0.089-0.031-0.156-0.094-0.203-0.063-0.048-0.175-0.098-0.337-0.15-0.163-0.053-0.291-0.105-0.386-0.156-0.258-0.14-0.387-0.328-0.387-0.564 0-0.123 0.034-0.232 0.103-0.328 0.070-0.097 0.169-0.172 0.298-0.227 0.13-0.054 0.276-0.081 0.438-0.081 0.163 0 0.307 0.030 0.434 0.089 0.127 0.058 0.226 0.141 0.295 0.248s0.106 0.229 0.106 0.366h-0.469c0-0.104-0.033-0.185-0.098-0.242s-0.158-0.087-0.277-0.087c-0.115 0-0.204 0.024-0.267 0.073-0.064 0.048-0.095 0.111-0.095 0.191 0 0.074 0.037 0.136 0.111 0.186 0.075 0.050 0.185 0.097 0.33 0.141 0.267 0.080 0.461 0.18 0.583 0.298s0.183 0.267 0.183 0.444c0 0.197-0.075 0.352-0.223 0.464-0.149 0.111-0.349 0.167-0.602 0.167-0.175 0-0.334-0.032-0.478-0.095-0.144-0.065-0.254-0.153-0.33-0.264s-0.113-0.241-0.113-0.388h0.47c0 0.251 0.15 0.377 0.45 0.377 0.111 0 0.198-0.022 0.261-0.067 0.063-0.046 0.094-0.109 0.094-0.191zM26.231 21.682h-0.697v1.895h-0.469v-1.895h-0.687v-0.38h1.853v0.38zM27.869 22.591h-0.9v0.609h1.056v0.377h-1.525v-2.275h1.522v0.38h-1.053v0.542h0.9v0.367zM29.142 22.744h-0.373v0.833h-0.469v-2.275h0.845c0.269 0 0.476 0.060 0.622 0.18s0.219 0.289 0.219 0.508c0 0.155-0.034 0.285-0.102 0.389-0.067 0.103-0.168 0.185-0.305 0.247l0.492 0.93v0.022h-0.503l-0.427-0.833zM28.769 22.365h0.378c0.118 0 0.209-0.030 0.273-0.089 0.065-0.060 0.097-0.143 0.097-0.248 0-0.107-0.031-0.192-0.092-0.253-0.060-0.061-0.154-0.092-0.28-0.092h-0.377v0.683zM31.609 22.775v0.802h-0.469v-2.275h0.887c0.171 0 0.321 0.031 0.45 0.094s0.23 0.152 0.3 0.267c0.070 0.115 0.105 0.245 0.105 0.392 0 0.223-0.077 0.399-0.23 0.528-0.152 0.128-0.363 0.192-0.633 0.192h-0.411zM31.609 22.396h0.419c0.124 0 0.218-0.029 0.283-0.088 0.066-0.058 0.098-0.142 0.098-0.25 0-0.111-0.033-0.202-0.098-0.27s-0.156-0.104-0.272-0.106h-0.43v0.714zM34.575 22.591h-0.9v0.609h1.056v0.377h-1.525v-2.275h1.522v0.38h-1.053v0.542h0.9v0.367zM36.75 21.682h-0.697v1.895h-0.469v-1.895h-0.688v-0.38h1.853v0.38zM38.387 22.591h-0.9v0.609h1.056v0.377h-1.525v-2.275h1.522v0.38h-1.053v0.542h0.9v0.367zM39.661 22.744h-0.373v0.833h-0.469v-2.275h0.845c0.269 0 0.476 0.060 0.622 0.18s0.219 0.289 0.219 0.508c0 0.155-0.034 0.285-0.102 0.389-0.067 0.103-0.168 0.185-0.305 0.247l0.492 0.93v0.022h-0.503l-0.427-0.833zM39.287 22.365h0.378c0.118 0 0.209-0.030 0.273-0.089 0.065-0.060 0.097-0.143 0.097-0.248 0-0.107-0.031-0.192-0.092-0.253-0.060-0.061-0.154-0.092-0.28-0.092h-0.377v0.683zM42.042 22.98c0-0.089-0.031-0.156-0.094-0.203-0.063-0.048-0.175-0.098-0.337-0.15-0.163-0.053-0.291-0.105-0.386-0.156-0.258-0.14-0.388-0.328-0.388-0.564 0-0.123 0.034-0.232 0.103-0.328 0.070-0.097 0.169-0.172 0.298-0.227 0.13-0.054 0.276-0.081 0.438-0.081 0.163 0 0.307 0.030 0.434 0.089 0.127 0.058 0.226 0.141 0.295 0.248 0.071 0.107 0.106 0.229 0.106 0.366h-0.469c0-0.104-0.033-0.185-0.098-0.242s-0.158-0.087-0.277-0.087c-0.115 0-0.204 0.024-0.267 0.073-0.064 0.048-0.095 0.111-0.095 0.191 0 0.074 0.037 0.136 0.111 0.186 0.075 0.050 0.185 0.097 0.33 0.141 0.267 0.080 0.461 0.18 0.583 0.298s0.183 0.267 0.183 0.444c0 0.197-0.074 0.352-0.223 0.464-0.149 0.111-0.349 0.167-0.602 0.167-0.175 0-0.334-0.032-0.478-0.095-0.144-0.065-0.254-0.153-0.33-0.264-0.075-0.111-0.112-0.241-0.112-0.388h0.47c0 0.251 0.15 0.377 0.45 0.377 0.111 0 0.198-0.022 0.261-0.067 0.063-0.046 0.094-0.109 0.094-0.191z"></path>
</symbol>

<symbol id="client-brand" viewBox="0 0 57 32">
<path d="M14.27 23.859c0.13 0.147 0.199 0.332 0.196 0.521 0.007 0.123-0.017 0.247-0.070 0.361s-0.132 0.216-0.233 0.297c-0.252 0.175-0.565 0.26-0.881 0.24h-1.549v-3.302h1.517c0.299-0.018 0.596 0.059 0.84 0.219 0.098 0.075 0.176 0.17 0.227 0.277s0.074 0.224 0.068 0.341c0.009 0.182-0.054 0.361-0.176 0.505-0.118 0.131-0.28 0.222-0.462 0.258 0.205 0.034 0.391 0.134 0.523 0.282zM12.454 23.36h0.648c0.147 0.010 0.294-0.029 0.412-0.11 0.049-0.040 0.087-0.090 0.111-0.146s0.034-0.116 0.028-0.176c0.005-0.060-0.005-0.12-0.029-0.175s-0.061-0.106-0.108-0.147c-0.122-0.083-0.273-0.123-0.425-0.111h-0.638v0.866zM13.578 24.627c0.052-0.041 0.093-0.093 0.12-0.151s0.038-0.121 0.034-0.184c0.004-0.064-0.008-0.127-0.035-0.186s-0.069-0.111-0.121-0.153c-0.127-0.086-0.283-0.128-0.44-0.119h-0.68v0.908h0.689c0.155 0.008 0.309-0.032 0.435-0.114z"></path>
<path d="M17.371 25.278l-0.844-1.291h-0.317v1.291h-0.726v-3.302h1.374c0.346-0.022 0.689 0.078 0.957 0.281 0.192 0.179 0.308 0.415 0.327 0.666s-0.061 0.499-0.224 0.7c-0.17 0.178-0.401 0.296-0.655 0.336l0.898 1.32h-0.789zM16.21 23.538h0.594c0.412 0 0.618-0.167 0.618-0.5 0.004-0.068-0.007-0.136-0.033-0.2s-0.066-0.122-0.118-0.171c-0.13-0.099-0.298-0.147-0.467-0.134h-0.601l0.007 1.005z"></path>
<path d="M21.339 24.614h-1.446l-0.255 0.665h-0.761l1.328-3.265h0.823l1.323 3.265h-0.761l-0.25-0.665zM21.145 24.114l-0.529-1.394-0.529 1.394h1.057z"></path>
<path d="M26.305 25.278h-0.721l-1.616-2.245v2.245h-0.719v-3.302h0.719l1.616 2.258v-2.258h0.721v3.302z"></path>
<path d="M30.417 24.488c-0.149 0.249-0.376 0.452-0.652 0.582-0.314 0.145-0.662 0.217-1.013 0.208h-1.283v-3.302h1.283c0.351-0.008 0.698 0.061 1.013 0.203 0.276 0.127 0.503 0.328 0.652 0.576 0.148 0.269 0.226 0.565 0.226 0.866s-0.077 0.598-0.226 0.866zM29.593 24.409c0.206-0.219 0.319-0.499 0.319-0.788s-0.113-0.569-0.319-0.788c-0.249-0.199-0.573-0.3-0.902-0.281h-0.5v2.137h0.5c0.329 0.019 0.654-0.082 0.902-0.281z"></path>
<path d="M21.79 3.609c0 0 9.301 3.215 9.103 7.867v7.869c0 0-9.294-3.217-9.1-7.869l-0.004-7.867z"></path>
<path d="M39.179 17.503c1.757-1.107 3.788-1.792 5.909-1.994v-2.463c-2.444 0.862-4.517 2.426-5.909 4.457z"></path>
<path d="M38.124 18.245c1.438-2.651 3.93-4.696 6.964-5.715v-7.098c0 0-13.245 4.58-12.965 11.205v11.203c0 0 0.59-0.205 1.519-0.589 0-0.358 0-0.719 0.042-1.082 0.274-3.076 1.871-5.926 4.44-7.924z"></path>
<path d="M36.864 22.407c0.070-0.777 0.225-1.546 0.463-2.294-1.599 1.725-2.568 3.866-2.77 6.122-0.019 0.213-0.030 0.426-0.035 0.645 0.752-0.331 1.628-0.744 2.548-1.229-0.235-1.067-0.304-2.159-0.206-3.244z"></path>
<path d="M37.391 22.447c-0.088 0.982-0.033 1.969 0.164 2.938 3.619-1.983 7.685-5.046 7.528-8.748v-0.323c-2.585 0.265-5.004 1.3-6.885 2.946-0.44 1.020-0.712 2.094-0.807 3.188z"></path>
</symbol>

<symbol id="client-company" viewBox="0 0 57 32">
<path d="M19.417 26.187c0.008 0 0.017 0.002 0.025 0.005s0.015 0.007 0.020 0.013l0.116 0.111c-0.090 0.090-0.202 0.162-0.327 0.211-0.147 0.053-0.305 0.079-0.464 0.076-0.149 0.003-0.298-0.021-0.436-0.071-0.125-0.045-0.237-0.113-0.329-0.2-0.094-0.089-0.166-0.194-0.212-0.308-0.051-0.127-0.076-0.261-0.074-0.396-0.002-0.135 0.025-0.27 0.080-0.397 0.051-0.115 0.127-0.22 0.225-0.308 0.099-0.087 0.218-0.155 0.349-0.201 0.143-0.048 0.296-0.072 0.449-0.071 0.143-0.003 0.285 0.019 0.417 0.064 0.115 0.043 0.221 0.104 0.313 0.178l-0.097 0.119c-0.007 0.008-0.015 0.016-0.025 0.021-0.012 0.007-0.025 0.010-0.039 0.009-0.015-0.001-0.030-0.005-0.042-0.013l-0.052-0.032-0.073-0.040c-0.031-0.015-0.064-0.028-0.097-0.039-0.043-0.013-0.087-0.024-0.132-0.032-0.057-0.009-0.115-0.013-0.173-0.013-0.111-0.001-0.22 0.017-0.323 0.053-0.096 0.034-0.182 0.084-0.253 0.149-0.073 0.069-0.128 0.15-0.164 0.238-0.041 0.101-0.061 0.207-0.060 0.313-0.002 0.108 0.018 0.216 0.060 0.318 0.035 0.087 0.090 0.167 0.161 0.236 0.067 0.064 0.149 0.114 0.241 0.147 0.095 0.034 0.197 0.051 0.3 0.050 0.059 0.001 0.119-0.003 0.177-0.010 0.096-0.010 0.188-0.039 0.269-0.085 0.041-0.023 0.079-0.049 0.115-0.078 0.015-0.012 0.035-0.020 0.055-0.020z"></path>
<path d="M22.776 25.629c0.002 0.134-0.025 0.267-0.078 0.393-0.047 0.114-0.122 0.218-0.219 0.305s-0.214 0.155-0.344 0.2c-0.285 0.094-0.599 0.094-0.884 0-0.129-0.046-0.245-0.114-0.342-0.201-0.097-0.089-0.172-0.194-0.221-0.308-0.105-0.255-0.105-0.533 0-0.787 0.050-0.115 0.125-0.22 0.221-0.31 0.097-0.084 0.214-0.15 0.342-0.193 0.284-0.096 0.6-0.096 0.884 0 0.129 0.046 0.246 0.114 0.343 0.201 0.096 0.088 0.17 0.191 0.22 0.304 0.054 0.127 0.080 0.261 0.078 0.395zM22.47 25.629c0.002-0.107-0.016-0.214-0.055-0.316-0.033-0.087-0.086-0.168-0.156-0.236-0.068-0.065-0.152-0.116-0.246-0.149-0.207-0.069-0.436-0.069-0.643 0-0.094 0.033-0.178 0.084-0.246 0.149-0.071 0.068-0.125 0.149-0.157 0.236-0.074 0.206-0.074 0.426 0 0.632 0.033 0.087 0.086 0.168 0.157 0.236 0.068 0.065 0.152 0.115 0.246 0.148 0.207 0.067 0.435 0.067 0.643 0 0.093-0.033 0.177-0.083 0.246-0.148 0.070-0.069 0.123-0.149 0.156-0.236 0.039-0.102 0.058-0.209 0.055-0.316z"></path>
<path d="M25.067 25.96l0.030 0.071c0.012-0.025 0.022-0.048 0.033-0.071 0.011-0.024 0.024-0.047 0.038-0.070l0.743-1.174c0.015-0.020 0.028-0.033 0.042-0.037 0.020-0.005 0.040-0.007 0.061-0.006h0.22v1.909h-0.26v-1.404c0-0.018 0-0.038 0-0.059-0.001-0.022-0.001-0.044 0-0.066l-0.747 1.19c-0.009 0.018-0.025 0.033-0.044 0.043s-0.041 0.016-0.064 0.016h-0.042c-0.023 0-0.045-0.005-0.064-0.016s-0.034-0.026-0.044-0.044l-0.769-1.198c0 0.023 0 0.046 0 0.068s0 0.043 0 0.061v1.404h-0.252v-1.905h0.22c0.021-0.001 0.041 0.001 0.061 0.006 0.018 0.008 0.032 0.021 0.041 0.037l0.759 1.175c0.015 0.022 0.028 0.045 0.038 0.068z"></path>
<path d="M27.864 25.865v0.715h-0.291v-1.906h0.649c0.122-0.002 0.244 0.012 0.362 0.042 0.094 0.023 0.181 0.064 0.256 0.119 0.065 0.052 0.114 0.116 0.145 0.187 0.034 0.078 0.051 0.161 0.049 0.244 0.001 0.084-0.017 0.167-0.054 0.244-0.035 0.073-0.089 0.138-0.157 0.191-0.075 0.057-0.162 0.1-0.257 0.126-0.113 0.031-0.232 0.046-0.35 0.044l-0.352-0.005zM27.864 25.66h0.352c0.076 0.001 0.153-0.009 0.225-0.029 0.060-0.018 0.115-0.046 0.163-0.082 0.044-0.035 0.078-0.078 0.099-0.126 0.024-0.051 0.036-0.105 0.035-0.16 0.003-0.053-0.007-0.106-0.029-0.155s-0.057-0.094-0.102-0.13c-0.111-0.075-0.251-0.112-0.391-0.102h-0.352v0.786z"></path>
<path d="M31.772 26.583h-0.23c-0.023 0.001-0.046-0.006-0.064-0.018-0.017-0.012-0.029-0.027-0.038-0.044l-0.198-0.461h-0.993l-0.205 0.461c-0.008 0.017-0.020 0.032-0.036 0.043-0.018 0.013-0.042 0.020-0.065 0.019h-0.23l0.872-1.909h0.302l0.884 1.909zM30.333 25.874h0.82l-0.346-0.777c-0.026-0.058-0.048-0.118-0.065-0.179l-0.034 0.1c-0.010 0.030-0.022 0.058-0.032 0.081l-0.343 0.776z"></path>
<path d="M33.029 24.682c0.017 0.008 0.032 0.020 0.044 0.034l1.272 1.439c0-0.023 0-0.046 0-0.067s0-0.043 0-0.063v-1.352h0.26v1.909h-0.145c-0.021 0.001-0.041-0.003-0.060-0.011-0.018-0.009-0.034-0.021-0.047-0.035l-1.271-1.438c0.001 0.022 0.001 0.044 0 0.066 0 0.021 0 0.040 0 0.058v1.361h-0.26v-1.909h0.154c0.018-0 0.036 0.003 0.052 0.009z"></path>
<path d="M36.748 25.823v0.758h-0.291v-0.758l-0.804-1.15h0.26c0.022-0.001 0.045 0.005 0.063 0.016 0.016 0.012 0.029 0.027 0.039 0.043l0.503 0.742c0.020 0.032 0.038 0.061 0.052 0.088s0.026 0.054 0.036 0.081l0.038-0.082c0.014-0.030 0.031-0.059 0.049-0.087l0.496-0.747c0.010-0.015 0.023-0.028 0.038-0.040 0.017-0.013 0.040-0.020 0.063-0.019h0.263l-0.806 1.155z"></path>
<path d="M24.923 21.47c0.127 0.014 0.255 0.025 0.384 0.035 1.962-0.763 3.622-2.011 4.772-3.588s1.74-3.415 1.695-5.282l-2.162-1.879c0.44 1.988 0.234 4.043-0.594 5.935s-2.245 3.547-4.094 4.779z"></path>
<path d="M24.151 21.383l0.058 0.010c1.975-1.228 3.482-2.942 4.323-4.921s0.981-4.133 0.4-6.181l-3.080-2.676c1.246 2.2 1.747 4.661 1.446 7.098s-1.393 4.75-3.147 6.67z"></path>
<path d="M34.596 14.841c-0.523 2.052-1.794 3.902-3.624 5.276-0.534 0.404-1.111 0.763-1.722 1.074 1.49-0.38 2.859-1.053 4.003-1.966s2.030-2.042 2.592-3.3l-1.249-1.084z"></path>
<path d="M34.106 14.539l-1.778-1.545c-0.034 1.762-0.61 3.483-1.669 4.986s-2.562 2.731-4.352 3.559h0.009c0.399-0 0.798-0.021 1.194-0.062 1.673-0.593 3.151-1.537 4.303-2.748s1.94-2.65 2.295-4.189z"></path>
<path d="M24.409 6.486l-2.122-1.846c-1.897 0.637-3.528 1.756-4.68 3.212s-1.772 3.179-1.778 4.946v0c0.007 1.952 0.763 3.846 2.149 5.383s3.322 2.628 5.501 3.101c1.946-2.060 3.085-4.605 3.252-7.266s-0.647-5.299-2.323-7.53z"></path>
<path d="M39.008 14.255c-0.008-2.316-1.070-4.535-2.955-6.173s-4.439-2.561-7.105-2.567c-1.232-0.001-2.453 0.196-3.602 0.582l12.99 11.286c0.445-0.998 0.673-2.058 0.672-3.128z"></path>
</symbol>

<symbol id="client-company-tag-line" viewBox="0 0 57 32">
<path d="M28.493 14.618c-0.236-0.315-0.349-0.686-0.323-1.061v-1.538c0-0.471 0.107-0.83 0.321-1.075s0.581-0.367 1.102-0.366c0.489 0 0.836 0.104 1.042 0.313 0.224 0.266 0.333 0.592 0.308 0.92v0.361h-0.875v-0.366c0.003-0.12-0.005-0.24-0.025-0.358-0.013-0.081-0.057-0.156-0.125-0.213-0.090-0.061-0.203-0.091-0.317-0.083-0.12-0.008-0.239 0.024-0.333 0.088-0.076 0.063-0.127 0.145-0.145 0.235-0.025 0.126-0.037 0.253-0.034 0.38v1.866c-0.014 0.18 0.025 0.36 0.112 0.524 0.044 0.055 0.104 0.099 0.175 0.127s0.149 0.038 0.226 0.029c0.112 0.008 0.223-0.022 0.31-0.084 0.071-0.061 0.117-0.141 0.13-0.227 0.020-0.124 0.030-0.249 0.027-0.374v-0.379h0.875v0.346c0.025 0.342-0.082 0.682-0.303 0.967-0.201 0.228-0.544 0.343-1.047 0.343s-0.884-0.122-1.1-0.375z"></path>
<path d="M32.137 14.633c-0.221-0.239-0.332-0.588-0.332-1.050v-1.617c0-0.457 0.11-0.802 0.332-1.037s0.591-0.351 1.109-0.35c0.515 0 0.882 0.117 1.103 0.35 0.221 0.235 0.333 0.58 0.333 1.037v1.617c0 0.457-0.112 0.807-0.337 1.048s-0.591 0.361-1.1 0.361c-0.509 0-0.886-0.122-1.109-0.36zM33.654 14.245c0.079-0.15 0.115-0.314 0.105-0.479v-1.98c0.010-0.161-0.025-0.322-0.103-0.469-0.044-0.057-0.106-0.101-0.179-0.129s-0.152-0.037-0.231-0.027c-0.079-0.009-0.159 0-0.231 0.028s-0.135 0.072-0.18 0.129c-0.080 0.146-0.116 0.308-0.105 0.469v1.99c-0.011 0.165 0.025 0.329 0.105 0.479 0.051 0.050 0.114 0.091 0.185 0.119s0.147 0.042 0.225 0.042c0.078 0 0.154-0.014 0.225-0.042s0.134-0.068 0.185-0.119v-0.009z"></path>
<path d="M35.735 10.626h0.942l0.708 2.984 0.725-2.984h0.917l0.092 4.308h-0.678l-0.072-2.994-0.699 2.994h-0.544l-0.725-3.005-0.067 3.005h-0.685l0.085-4.308z"></path>
<path d="M40.176 10.626h1.468c0.846 0 1.268 0.408 1.268 1.223 0 0.781-0.445 1.171-1.335 1.17h-0.5v1.915h-0.906l0.005-4.308zM41.43 12.467c0.090 0.010 0.18 0.003 0.266-0.021s0.165-0.063 0.232-0.115c0.104-0.146 0.15-0.316 0.13-0.486 0.005-0.131-0.010-0.263-0.044-0.391-0.013-0.043-0.036-0.083-0.067-0.118s-0.070-0.065-0.114-0.087c-0.126-0.052-0.265-0.076-0.404-0.069h-0.352v1.287h0.352z"></path>
<path d="M44.218 10.626h0.973l0.998 4.308h-0.844l-0.197-0.993h-0.868l-0.203 0.993h-0.857l0.998-4.308zM45.050 13.441l-0.339-1.808-0.339 1.808h0.678z"></path>
<path d="M46.996 10.626h0.634l1.214 2.457v-2.457h0.752v4.308h-0.603l-1.221-2.565v2.565h-0.777l0.002-4.308z"></path>
<path d="M51.357 13.291l-1.009-2.659h0.85l0.616 1.708 0.578-1.708h0.832l-0.997 2.659v1.642h-0.87v-1.642z"></path>
<path d="M29.892 16.817v0.225h-0.739v1.75h-0.31v-1.75h-0.743v-0.225h1.792z"></path>
<path d="M32.209 18.793h-0.239c-0.024 0.001-0.048-0.005-0.067-0.019-0.018-0.011-0.032-0.027-0.040-0.045l-0.214-0.469h-1.026l-0.214 0.469c-0.006 0.020-0.017 0.038-0.033 0.053-0.019 0.013-0.043 0.020-0.067 0.019h-0.239l0.906-1.976h0.315l0.917 1.968zM30.709 18.059h0.855l-0.362-0.804c-0.027-0.061-0.049-0.123-0.067-0.186-0.013 0.038-0.024 0.073-0.034 0.105l-0.033 0.083-0.359 0.802z"></path>
<path d="M33.771 18.599c0.057 0.003 0.114 0.003 0.17 0 0.049-0.004 0.097-0.012 0.145-0.023 0.044-0.009 0.088-0.021 0.13-0.036 0.040-0.014 0.080-0.031 0.121-0.048v-0.444h-0.362c-0.009 0-0.018-0.001-0.026-0.003s-0.016-0.007-0.023-0.012c-0.006-0.004-0.011-0.010-0.014-0.016s-0.005-0.013-0.004-0.020v-0.152h0.703v0.757c-0.057 0.035-0.118 0.067-0.181 0.094-0.065 0.028-0.132 0.050-0.201 0.067-0.074 0.019-0.15 0.032-0.227 0.041-0.088 0.008-0.176 0.013-0.264 0.012-0.156 0.001-0.311-0.024-0.457-0.073-0.136-0.047-0.259-0.117-0.362-0.206-0.101-0.090-0.18-0.196-0.234-0.313-0.057-0.131-0.085-0.27-0.083-0.41-0.002-0.141 0.026-0.281 0.082-0.413 0.052-0.117 0.132-0.224 0.234-0.313 0.103-0.089 0.227-0.159 0.362-0.205 0.155-0.050 0.32-0.075 0.486-0.074 0.084-0 0.169 0.006 0.252 0.017 0.074 0.010 0.146 0.027 0.216 0.050 0.063 0.021 0.124 0.047 0.181 0.078 0.056 0.031 0.108 0.065 0.158 0.103l-0.087 0.122c-0.007 0.011-0.017 0.021-0.029 0.027s-0.027 0.010-0.041 0.010c-0.020-0.001-0.040-0.006-0.056-0.016-0.027-0.013-0.056-0.028-0.089-0.047-0.038-0.021-0.079-0.039-0.121-0.053-0.054-0.019-0.11-0.033-0.167-0.044-0.076-0.012-0.153-0.018-0.23-0.017-0.12-0.001-0.238 0.017-0.35 0.055-0.101 0.035-0.192 0.088-0.266 0.156-0.075 0.071-0.132 0.155-0.169 0.246-0.081 0.214-0.081 0.445 0 0.659 0.040 0.093 0.101 0.178 0.181 0.249 0.074 0.068 0.164 0.121 0.265 0.156 0.115 0.034 0.237 0.047 0.359 0.039z"></path>
<path d="M36.659 18.567h0.989v0.225h-1.292v-1.976h0.31l-0.007 1.75z"></path>
<path d="M38.678 18.792h-0.31v-1.976h0.31v1.976z"></path>
<path d="M39.83 16.826c0.018 0.009 0.034 0.021 0.047 0.036l1.324 1.489c-0.002-0.023-0.002-0.047 0-0.070 0-0.022 0-0.044 0-0.064v-1.408h0.27v1.984h-0.156c-0.023 0.002-0.046-0.002-0.067-0.011-0.019-0.010-0.035-0.023-0.049-0.038l-1.323-1.488c0 0.023 0 0.045 0 0.067s0 0.042 0 0.061v1.408h-0.259v-1.976h0.161c0.017 0 0.035 0.003 0.051 0.009z"></path>
<path d="M43.753 16.817v0.217h-1.098v0.652h0.89v0.21h-0.89v0.674h1.098v0.217h-1.417v-1.971h1.417z"></path>
<path d="M11.286 4.616l13.757 3.372v11.818l-13.757-3.371v-11.819zM10.404 3.609v13.401l15.52 3.806v-13.399l-15.52-3.807z"></path>
<path d="M18.722 27.036l-15.522-3.809v-13.399l15.522 3.807v13.401z"></path>
<path d="M10.661 4.465l13.578 3.33-5.774 4.987-13.58-3.332 5.776-4.985zM10.404 3.609l-7.204 6.219 15.522 3.807 7.202-6.219-15.52-3.807z"></path>
<path d="M19.595 26.282l6.329-5.465-6.329-1.553v7.018z"></path>
</symbol>

<symbol id="close-icon" viewBox="0 0 32 32">
<path d="M26.667 7.303l-1.97-1.97-7.808 7.808-7.808-7.808-1.97 1.97 7.808 7.808-7.808 7.808 1.97 1.97 7.808-7.808 7.808 7.808 1.97-1.97-7.808-7.808 7.808-7.808z"></path>
</symbol>

<symbol id="envelope-form" viewBox="0 0 43 32">
<path d="M37.333 0h-32c-2.2 0-3.98 1.8-3.98 4l-0.020 24c0 2.2 1.8 4 4 4h32c2.2 0 4-1.8 4-4v-24c0-2.2-1.8-4-4-4zM36.533 8.5l-14.14 8.84c-0.64 0.4-1.48 0.4-2.12 0l-14.14-8.84c-0.5-0.32-0.8-0.86-0.8-1.44 0-1.34 1.46-2.14 2.6-1.44l13.4 8.38 13.4-8.38c1.14-0.7 2.6 0.1 2.6 1.44 0 0.58-0.3 1.12-0.8 1.44z"></path>
</symbol>

<symbol id="person-black-form" viewBox="0 0 32 32">
<path d="M16 16c2.947 0 5.333-2.387 5.333-5.333s-2.387-5.333-5.333-5.333c-2.947 0-5.333 2.387-5.333 5.333s2.387 5.333 5.333 5.333zM16 18.667c-3.56 0-10.667 1.787-10.667 5.333v1.333c0 0.733 0.6 1.333 1.333 1.333h18.667c0.733 0 1.333-0.6 1.333-1.333v-1.333c0-3.547-7.107-5.333-10.667-5.333z"></path>
</symbol>

<symbol id="phone-black-form" viewBox="0 0 32 32">
<path d="M24.882 19.773l-3.268-0.373c-0.785-0.090-1.557 0.18-2.11 0.733l-2.367 2.367c-3.641-1.853-6.626-4.825-8.478-8.478l2.38-2.38c0.553-0.553 0.823-1.325 0.733-2.11l-0.373-3.242c-0.154-1.299-1.248-2.277-2.56-2.277h-2.226c-1.454 0-2.663 1.209-2.573 2.663 0.682 10.987 9.469 19.761 20.443 20.443 1.454 0.090 2.663-1.119 2.663-2.573v-2.226c0.013-1.3-0.965-2.393-2.264-2.547z"></path>
</symbol>

<symbol id="icon-check" viewBox="0 0 34 32">
<path d="M4.267 0h25.6c2.356 0 4.267 1.91 4.267 4.267v23.467c0 2.356-1.91 4.267-4.267 4.267h-25.6c-2.356 0-4.267-1.91-4.267-4.267v-23.467c0-2.356 1.91-4.267 4.267-4.267z"></path>
<path fill="#fff" style="fill: var(--color2, #fff); stroke: var(--color2, #fff)" stroke="#fff" stroke-linejoin="miter" stroke-linecap="butt" stroke-miterlimit="4" stroke-width="0.4267" d="M8.442 16.537l-0.147-0.14-2.205 2.088 7.767 7.41 16.318-15.567-2.19-2.089-14.128 13.465-5.416-5.167z"></path>
</symbol>
</defs>

<symbol id="icon-send" class="footer-mail-form__icon" viewBox="0 0 24 24">
<path d="M24 0L0 13.5L7.66994 16.3407L19.5 5.25002L10.5017 17.3896L10.509 17.3923L10.5 17.3896V24.0001L14.8013 18.982L20.2501 21.0001L24 0Z"/>
</symbol>

</svg>
